<?xml version="1.0" encoding="utf-8"?>
<!-- Generator: Adobe Illustrator 23.0.6, SVG Export Plug-In . SVG Version: 6.00 Build 0)  -->
<svg version="1.1" id="katman_1" xmlns="http://www.w3.org/2000/svg" xmlns:xlink="http://www.w3.org/1999/xlink" x="0px" y="0px"
	 viewBox="0 0 300.3 80" style="enable-background:new 0 0 300.3 80;" xml:space="preserve">
<style type="text/css">
	.st0{fill:#24272A;}
	.st1{fill:#E1251B;}
</style>
<g>
	<g>
		<path class="st0" d="M228.8,27.5h-2.5c-1.8,0-1.1,0.5-3.9-3.3l-3.1-4.1l-0.6,0.6v5c0,1.3,0.2,1.6,1.7,1.6c0.1,0,0.1,0.3,0,0.3
			c-0.8,0-1.7,0-2.8,0c-1,0-2,0-2.8,0c-0.1,0-0.1-0.3,0-0.3c1.5,0,1.7-0.2,1.7-1.6V15.2c0-1.3-0.2-1.6-1.7-1.6c-0.1,0-0.1-0.3,0-0.3
			c0.8,0,1.7,0.1,2.8,0.1c1.1,0,2.1-0.1,2.8-0.1c0.1,0,0.1,0.3,0,0.3c-1.5,0-1.7,0.3-1.7,1.6v4.8l4.4-4.5c1.1-1.1,0.9-1.9-0.7-1.9
			c-0.1,0-0.1-0.3,0-0.3c0.8,0,1.5,0.1,2.8,0.1s2-0.1,2.8-0.1c0.1,0,0.1,0.3,0,0.3c-1.3,0-3,0.7-4.3,2l-2.9,2.9L224,23
			c3.1,4.2,3.5,4.2,4.8,4.2C228.9,27.3,228.9,27.5,228.8,27.5"/>
		<path class="st0" d="M233.9,10.2c0-0.7,0.5-1.2,1.2-1.2c0.8,0,1.2,0.5,1.2,1.2c0,0.8-0.4,1.2-1.2,1.2
			C234.4,11.4,233.9,11,233.9,10.2 M238,27.3c0.1,0,0.1,0.3,0,0.3c-0.8,0-1.7,0-2.8,0c-1,0-2,0-2.8,0c-0.1,0-0.1-0.3,0-0.3
			c1.5,0,1.7-0.2,1.7-1.6V15.2c0-1.3-0.2-1.6-1.7-1.6c-0.1,0-0.1-0.3,0-0.3c0.8,0,1.8,0.1,2.8,0.1c1.2,0,2.1-0.1,2.8-0.1
			c0.1,0,0.1,0.3,0,0.3c-1.5,0-1.7,0.3-1.7,1.6v10.4C236.2,27,236.5,27.3,238,27.3"/>
		<path class="st0" d="M245.9,27.7c-0.2,1-0.1,1.4,0.8,1.9c0.6,0.4,1.2,0.8,1.2,1.7c0,1-0.7,2.3-2.6,2.3c-1,0-1.6-0.3-1.6-1
			c0-0.4,0.4-0.8,0.8-0.8c1.1,0,0.5,1.3,1.6,1.3c0.4,0,0.6-0.2,0.6-0.7c0-0.8-0.5-1.3-1.9-2.1c-0.3-0.1-0.3-0.2-0.1-0.6
			c0.4-0.9,0.4-1.1,0.8-2h-0.3c-1.2,0-2.8-0.4-3.5-0.9c-0.1-0.1-0.2-0.2-0.2-0.4l-0.2-3.4c0-0.1,0.2-0.2,0.3-0.1
			c0.7,1.9,1.9,4.2,4.2,4.2c1.1,0,2.3-0.5,2.3-2.3c0-2.2-1.6-3.2-3.2-4.2c-1.6-1-3.2-2-3.2-4c0-2.5,2.4-3.6,4.6-3.6
			c1,0,2.1,0.2,2.8,0.5c0.2,0.1,0.3,0.2,0.3,0.4l0,3.1c0,0.1-0.2,0.2-0.3,0c-0.3-0.9-1.1-3.6-3.5-3.6c-1.4,0-2.2,0.8-2.2,2.2
			c0,1.8,1.5,2.7,3.1,3.7c1.7,1,3.4,2.1,3.4,4.3C250.1,25.9,248.4,27.5,245.9,27.7"/>
		<path class="st0" d="M255.1,10.2c0-0.7,0.5-1.2,1.2-1.2c0.8,0,1.2,0.5,1.2,1.2c0,0.8-0.4,1.2-1.2,1.2
			C255.6,11.4,255.1,11,255.1,10.2 M259.2,27.3c0.1,0,0.1,0.3,0,0.3c-0.8,0-1.7,0-2.8,0c-1,0-2,0-2.8,0c-0.1,0-0.1-0.3,0-0.3
			c1.5,0,1.7-0.2,1.7-1.6V15.2c0-1.3-0.2-1.6-1.7-1.6c-0.1,0-0.1-0.3,0-0.3c0.8,0,1.8,0.1,2.8,0.1c1.1,0,2.1-0.1,2.8-0.1
			c0.1,0,0.1,0.3,0,0.3c-1.5,0-1.7,0.3-1.7,1.6v10.4C257.5,27,257.7,27.3,259.2,27.3"/>
		<path class="st0" d="M267.8,19.5c1.7,1,3.4,2.1,3.4,4.3c0,2.3-1.9,4-4.8,4c-1.2,0-2.8-0.4-3.5-0.9c-0.1-0.1-0.2-0.2-0.2-0.4
			l-0.1-3.4c0-0.1,0.2-0.2,0.3-0.1c0.7,1.9,1.9,4.3,4.1,4.3c1.2,0,2.3-0.5,2.3-2.3c0-2.2-1.6-3.2-3.3-4.2c-1.6-1-3.2-2-3.2-4
			c0-2.5,2.4-3.6,4.6-3.6c1,0,2.1,0.2,2.8,0.5c0.3,0.1,0.4,0.2,0.4,0.4l0,3.1c0,0.1-0.2,0.2-0.3,0c-0.3-0.9-1.1-3.6-3.5-3.6
			c-1.4,0-2.2,0.9-2.2,2.2C264.7,17.6,266.2,18.5,267.8,19.5"/>
		<path class="st0" d="M285,24c-0.1,0.9-0.2,2.1-0.2,3.1c0,0.2-0.1,0.3-0.3,0.3h-9.8c-0.1,0-0.1-0.3,0-0.3c1.5,0,1.7-0.2,1.7-1.6
			V15.2c0-1.3-0.2-1.6-1.7-1.6c-0.1,0-0.1-0.3,0-0.3h9.4c0.2,0,0.2,0.1,0.2,0.2l0,2.9c0,0.1-0.2,0.1-0.2,0c-0.4-1.7-1.4-2.6-3.2-2.6
			H280c-1.1,0-1.5,0.4-1.5,1.3v4.6h2.2c1.6,0,2.5-0.6,2.5-1.7c0-0.1,0.3-0.1,0.3,0c0,1,0,1.4,0,2c0,0.7,0.1,1.4,0.1,2.2
			c0,0.1-0.3,0.1-0.3,0c0-1.2-0.8-1.9-2.5-1.9h-2.1v5.1c0,1,0.3,1.3,1.3,1.3h1.1c2,0,3.3-1,3.8-2.9C284.8,23.9,285,24,285,24"/>
		<path class="st0" d="M292.4,25.6c0,1.2,0.2,1.3,1.5,1.3h1.3c2.1,0,3.7-1.3,4.2-3.3c0-0.1,0.3,0,0.3,0c-0.1,0.9-0.2,2.4-0.2,3.5
			c0,0.2-0.1,0.3-0.3,0.3h-10.6c-0.1,0-0.1-0.3,0-0.3c1.5,0,1.7-0.2,1.7-1.6V15.2c0-1.3-0.2-1.6-1.7-1.6c-0.1,0-0.1-0.3,0-0.3
			c0.7,0,1.7,0.1,2.8,0.1c1.1,0,2.1-0.1,2.8-0.1c0.1,0,0.1,0.3,0,0.3c-1.5,0-1.7,0.3-1.7,1.6V25.6z"/>
	</g>
	<g>
		<path class="st0" d="M214.6,45.2c0-4.4,3.7-7.4,8.6-7.4c1.4,0,2.9,0.2,3.8,0.7c0.2,0.1,0.3,0.2,0.3,0.5l0.3,2.9
			c0,0.1-0.2,0.1-0.2,0c-0.9-2.3-2.8-3.6-5.2-3.6c-3.4,0-5.1,2.4-5.1,6c0,4.5,2.7,7.6,6.3,7.6c1.9,0,2.6-0.4,2.6-2.7
			c0-2.2-0.2-2.4-2.3-2.4c-0.2,0-0.2-0.4,0-0.4c2,0.1,3.5,0.1,5.3,0c0.1,0,0.2,0.3,0,0.3c-0.9,0-0.9,0.2-0.9,2.6
			c0,1.5,0.2,1.6,0.2,2c0,0.2-0.1,0.2-0.3,0.3c-1.6,0.4-3.5,0.6-5.1,0.6C217.6,52.4,214.6,49.2,214.6,45.2"/>
		<path class="st0" d="M241,48.6c-0.1,0.9-0.2,2.1-0.2,3.1c0,0.2-0.1,0.3-0.3,0.3h-9.8c-0.1,0-0.1-0.3,0-0.3c1.5,0,1.7-0.2,1.7-1.6
			V39.8c0-1.3-0.2-1.6-1.7-1.6c-0.1,0-0.1-0.3,0-0.3h9.4c0.2,0,0.2,0.1,0.2,0.2l0,2.9c0,0.1-0.2,0.1-0.2,0c-0.4-1.7-1.4-2.6-3.2-2.6
			H236c-1.1,0-1.5,0.4-1.5,1.3v4.6h2.2c1.6,0,2.5-0.6,2.5-1.7c0-0.1,0.3-0.1,0.3,0c0,1,0,1.4,0,2c0,0.7,0.1,1.4,0.1,2.2
			c0,0.1-0.3,0.1-0.3,0c0-1.2-0.8-1.9-2.5-1.9h-2.1v5.1c0,1,0.3,1.3,1.3,1.3h1.1c2,0,3.3-1,3.8-2.9C240.8,48.5,241,48.6,241,48.6"/>
		<path class="st0" d="M246.7,50.2c0,1.2,0.2,1.3,1.5,1.3h1.3c2.1,0,3.7-1.3,4.2-3.3c0-0.1,0.3,0,0.3,0c-0.1,0.9-0.2,2.4-0.2,3.5
			c0,0.2-0.1,0.3-0.3,0.3h-10.6c-0.1,0-0.1-0.3,0-0.3c1.5,0,1.7-0.2,1.7-1.6V39.8c0-1.3-0.2-1.6-1.7-1.6c-0.1,0-0.1-0.3,0-0.3
			c0.7,0,1.7,0.1,2.8,0.1c1.1,0,2.1-0.1,2.8-0.1c0.1,0,0.1,0.3,0,0.3c-1.5,0-1.7,0.3-1.7,1.6V50.2z"/>
		<path class="st0" d="M256.9,34.8c0-0.7,0.5-1.2,1.2-1.2s1.2,0.5,1.2,1.2c0,0.8-0.4,1.2-1.2,1.2S256.9,35.6,256.9,34.8 M260.9,51.8
			c0.1,0,0.1,0.3,0,0.3c-0.8,0-1.7,0-2.8,0c-1,0-2,0-2.8,0c-0.1,0-0.1-0.3,0-0.3c1.5,0,1.7-0.2,1.7-1.6V39.8c0-1.3-0.2-1.6-1.7-1.6
			c-0.1,0-0.1-0.3,0-0.3c0.8,0,1.8,0.1,2.8,0.1c1.2,0,2.1-0.1,2.8-0.1c0.1,0,0.1,0.3,0,0.3c-1.5,0-1.7,0.3-1.7,1.6v10.4
			C259.2,51.6,259.4,51.8,260.9,51.8"/>
		<path class="st0" d="M268.1,52.3c-0.2,1-0.1,1.4,0.8,1.9c0.6,0.4,1.2,0.8,1.2,1.7c0,1-0.7,2.3-2.6,2.3c-1,0-1.6-0.3-1.6-1
			c0-0.4,0.4-0.8,0.8-0.8c1.1,0,0.5,1.3,1.6,1.3c0.4,0,0.6-0.2,0.6-0.7c0-0.8-0.5-1.3-1.9-2.1c-0.3-0.1-0.3-0.2-0.1-0.6
			c0.4-0.9,0.4-1.1,0.8-2h-0.3c-1.2,0-2.8-0.4-3.5-0.9c-0.1-0.1-0.2-0.2-0.2-0.4l-0.2-3.4c0-0.1,0.2-0.2,0.3-0.1
			c0.7,1.9,1.9,4.2,4.2,4.2c1.1,0,2.3-0.5,2.3-2.3c0-2.2-1.6-3.2-3.3-4.2c-1.6-1-3.2-2-3.2-4c0-2.5,2.4-3.6,4.6-3.6
			c1,0,2.1,0.2,2.8,0.5c0.2,0.1,0.3,0.2,0.3,0.4l0,3.1c0,0.1-0.2,0.2-0.3,0c-0.3-0.9-1.1-3.6-3.5-3.6c-1.4,0-2.2,0.8-2.2,2.2
			c0,1.8,1.5,2.7,3.1,3.7c1.7,1,3.4,2.1,3.4,4.3C272.2,50.5,270.5,52.1,268.1,52.3"/>
		<path class="st0" d="M276,34.8c0-0.7,0.5-1.2,1.2-1.2s1.2,0.5,1.2,1.2c0,0.8-0.4,1.2-1.2,1.2S276,35.6,276,34.8 M280,51.8
			c0.1,0,0.1,0.3,0,0.3c-0.8,0-1.7,0-2.8,0c-1,0-2,0-2.8,0c-0.1,0-0.1-0.3,0-0.3c1.5,0,1.7-0.2,1.7-1.6V39.8c0-1.3-0.2-1.6-1.7-1.6
			c-0.1,0-0.1-0.3,0-0.3c0.8,0,1.8,0.1,2.8,0.1c1.2,0,2.1-0.1,2.8-0.1c0.1,0,0.1,0.3,0,0.3c-1.5,0-1.7,0.3-1.7,1.6v10.4
			C278.3,51.6,278.5,51.8,280,51.8"/>
		<path class="st0" d="M299.6,52.1c-0.8,0-1.8,0-2.8,0c-1.1,0-2,0-2.8,0c-0.1,0-0.1-0.3,0-0.3c1.4,0,1.7-0.2,1.6-1.6l-0.5-9.5
			L290.5,52c-0.1,0.1-0.3,0.1-0.4,0l-5.6-11.1l-0.2,8.6c0,1.6,0.6,2.5,1.9,2.5c0.1,0,0.1,0.3,0,0.3c-0.7,0-1.3,0-2.2,0
			c-0.9,0-1.6,0-2.3,0c-0.1,0-0.1-0.3,0-0.3c1.2,0,1.9-0.9,2-2.5l0.2-9.7c-0.5-0.9-1.2-1.4-2-1.4c-0.1,0-0.1-0.3,0-0.3
			c0.6,0,1.3,0,1.7,0c0.7,0,1.2,0,1.5,0c0.4,0,0.5,0.2,1,1.2l5,9.7l4.5-10.3c0.2-0.4,0.4-0.6,0.7-0.6c0.2,0,0.6,0,1,0
			c0.9,0,1.4,0,2.1,0c0.1,0,0.1,0.3,0,0.3c-1.4,0-2.1,0.5-2,1.7l0.5,10.3c0.1,1.3,0.3,1.6,1.7,1.6C299.7,51.8,299.7,52.1,299.6,52.1
			"/>
	</g>
	<g>
		<path class="st0" d="M231.5,79.2h-3c-2.1,0-1.3,0.6-4.7-3.9l-3.7-4.9l-0.7,0.7V77c0,1.6,0.3,1.9,2,1.9c0.1,0,0.1,0.3,0,0.3
			c-0.9,0-2-0.1-3.4-0.1c-1.2,0-2.4,0.1-3.3,0.1c-0.1,0-0.1-0.3,0-0.3c1.7,0,2.1-0.3,2.1-1.9V64.6c0-1.5-0.3-1.9-2-1.9
			c-0.1,0-0.1-0.3,0-0.3c0.9,0,2.1,0.1,3.3,0.1c1.3,0,2.5-0.1,3.4-0.1c0.1,0,0.1,0.3,0,0.3c-1.7,0-2,0.4-2,1.9v5.7l5.3-5.3
			c1.3-1.3,1-2.3-0.8-2.3c-0.1,0-0.1-0.3,0-0.3c0.9,0,1.7,0.1,3.4,0.1c1.6,0,2.4-0.1,3.3-0.1c0.1,0,0.1,0.3,0,0.3
			c-1.5,0-3.6,0.8-5.1,2.4l-3.5,3.5l3.9,5.2c3.7,5,4.1,5,5.7,5C231.6,78.8,231.6,79.2,231.5,79.2"/>
		<path class="st0" d="M244.3,62.7c-0.1,0-0.1-0.3,0-0.3c0.8,0,1.7,0.1,2.8,0.1c0.9,0,1.9-0.1,2.6-0.1c0.1,0,0.1,0.3,0,0.3
			c-1.4,0-2.2,1.1-2.2,3v7.5c0,3.9-2.6,6.4-6.6,6.4c-3.9,0-6.7-2.4-6.7-6.3v-8.6c0-1.5-0.3-1.9-2-1.9c-0.1,0-0.1-0.3,0-0.3
			c0.9,0,2,0.1,3.3,0.1c1.3,0,2.4-0.1,3.3-0.1c0.1,0,0.1,0.3,0,0.3c-1.7,0-2,0.4-2,1.9v7.6c0,4.3,1.9,6.3,5,6.3c3,0,4.9-1.9,4.9-5.4
			v-7.5C246.7,63.8,245.8,62.7,244.3,62.7"/>
		<path class="st0" d="M257.5,70.1c2.1,0,2.9-0.8,2.9-3.4c0-3.1-1.2-3.9-2.8-3.9c-1.3,0-1.7,0.4-1.7,1.8V70
			C256.4,70,257.1,70.1,257.5,70.1 M269,79.2h-4.3c-0.8,0-3.2-3.2-6.4-8.5c-0.3,0.1-0.6,0.1-0.9,0.1c-0.5,0-1,0-1.4,0V77
			c0,1.6,0.3,1.9,2,1.9c0.1,0,0.1,0.3,0,0.3c-0.9,0-2-0.1-3.4-0.1c-1.2,0-2.4,0.1-3.3,0.1c-0.1,0-0.1-0.3,0-0.3
			c1.7,0,2.1-0.3,2.1-1.9V64.6c0-1.5-0.3-1.9-2-1.9c-0.1,0-0.1-0.3,0-0.3c0.9,0,2.1,0.1,3.3,0.1c1,0,2.4-0.2,3.5-0.2
			c3.2,0,5,1.3,5,3.4c0,1.7-1.1,3.3-2.7,4.2c4.3,6.6,6.4,8.9,8.6,8.9C269.1,78.8,269.1,79.2,269,79.2"/>
		<path class="st0" d="M276.4,69.7c2,1.2,4.1,2.5,4.1,5.1c0,2.8-2.3,4.7-5.7,4.7c-1.5,0-3.3-0.5-4.1-1c-0.2-0.1-0.2-0.2-0.3-0.5
			l-0.2-4.1c0-0.2,0.2-0.2,0.3-0.1c0.9,2.2,2.3,5.1,4.9,5.1c1.4,0,2.7-0.6,2.7-2.7c0-2.6-2-3.8-3.9-5c-1.9-1.2-3.8-2.4-3.8-4.8
			c0-3,2.8-4.3,5.4-4.3c1.2,0,2.5,0.2,3.3,0.6c0.3,0.1,0.4,0.3,0.4,0.5l0.1,3.7c0,0.1-0.3,0.2-0.3,0.1c-0.3-1.1-1.3-4.3-4.1-4.3
			c-1.6,0-2.6,1-2.6,2.6C272.7,67.4,274.5,68.5,276.4,69.7"/>
		<path class="st0" d="M294.8,62.7c-0.1,0-0.1-0.3,0-0.3c0.8,0,1.7,0.1,2.8,0.1c0.9,0,1.9-0.1,2.6-0.1c0.1,0,0.1,0.3,0,0.3
			c-1.4,0-2.2,1.1-2.2,3v7.5c0,3.9-2.6,6.4-6.6,6.4c-3.9,0-6.7-2.4-6.7-6.3v-8.6c0-1.5-0.3-1.9-2-1.9c-0.1,0-0.1-0.3,0-0.3
			c0.9,0,2,0.1,3.3,0.1c1.3,0,2.4-0.1,3.3-0.1c0.1,0,0.1,0.3,0,0.3c-1.7,0-2,0.4-2,1.9v7.6c0,4.3,1.9,6.3,5,6.3c3,0,4.9-1.9,4.9-5.4
			v-7.5C297.2,63.8,296.3,62.7,294.8,62.7"/>
	</g>
	<g>
		<path class="st0" d="M206.6,12c-5,0-7.8,3.6-7.8,10.3V79c0,0.3-0.8,0.5-1.1,0.2L154,28.4v38c0,6.5,2.7,10.2,7.6,10.2
			c0.3,0,0.3,1.1,0,1.1c-2.7,0-5.4-0.2-8.8-0.2c-3.5,0-6.9,0.2-9.8,0.2c-0.4,0-0.4-1.1,0-1.1c5.4,0,8.4-3.6,8.4-10.2V25.5
			c-3.6-3.8-6.3-4.9-9-4.9c-0.3,0-0.3-1.1,0-1.1c2.3,0,5,0.2,7.2,0.2c3.7,0,7-0.2,8.6-0.2c1.7,0,1.7,1.3,4.6,4.8l33.6,39.5V22.2
			c0-6.6-2.6-10.3-7.6-10.3c-0.3,0-0.3-1.1,0-1.1c2.6,0,5.4,0.3,8.8,0.3c3.3,0,6.4-0.3,9.1-0.3C206.9,10.9,206.9,12,206.6,12"/>
		<path class="st0" d="M95.7,46.4l4.3-9.7l1.1-2.4l1.5-3.4l0,0l0,0l5.3,10.8l1.8,3.7l0.6,1.1H95.7z M139.8,76.6
			c-3.3,0-5.7-2.6-10-11.1c-0.1-0.2-0.2-0.4-0.3-0.6l-2.1-4.3l-1.5-2.9l-2.4-4.8l-4.7-9.6l-0.6-1.1l-1.2-2.4h0l-4.1-8.3l-4-8.2
			l-1.9-3.9l-0.2-0.5l-3.7-7.5c-0.1-0.2-0.4-0.2-0.7-0.2h-0.1c-0.7,0-1.4,0-2.1,0c-3.6,0-7.7-0.4-11.4-0.4c-0.6,0-0.6,1.1,0,1.1
			c2.9,0,5.2,2.1,8.7,8.6c0.4,0.8,0.8,1.6,1.3,2.5c0.1,0.1,0.1,0.2,0.2,0.4c0,0.1,0.1,0.1,0.1,0.2l2.1,4.3l-2.8,6.4l-1.1,2.4
			L85.2,64l0,0c-0.2,0.5-0.4,1-0.7,1.4c-4.1,8.9-6.5,11.1-11.3,11.1c-0.6,0-0.6,1.1,0,1.1c4,0,6.2-0.4,10.8-0.4
			c4.9,0,7.4,0.4,11,0.4c0.6,0,0.6-1.1,0-1.1c-7.2,0-10.7-3.9-7.9-11c0.1-0.2,0.2-0.4,0.3-0.6l0.2-0.5l7-15.7h16.9l10.1,20.4
			c2.9,5.8,2,7.4-3.6,7.4c-0.6,0-0.6,1.1,0,1.1c3.7,0,6.2-0.4,10.4-0.4c3.6,0,7.7,0.4,11.4,0.4C140.3,77.7,140.3,76.6,139.8,76.6"/>
	</g>
	<g>
		<path class="st1" d="M66.8,67.8c0.4-2,0.6-4,0.6-6.1H0c0,2.1,0.2,4.1,0.6,6.1H66.8z"/>
		<path class="st1" d="M65.3,80c0.4-2,0.6-4,0.6-6.1H1.5C1.5,76,1.7,78,2.1,80H65.3z"/>
		<path class="st1" d="M49,30.5v15.9c0,5.1,4.1,9.2,9.2,9.2c5.1,0,9.2-4.1,9.2-9.2h0V18.2L49,30.5z"/>
		<path class="st1" d="M24.5,12.3v34.1c0,5.1,4.1,9.2,9.2,9.2s9.2-4.1,9.2-9.2V0L24.5,12.3z"/>
		<path class="st1" d="M0,9.6v36.8c0,5.1,4.1,9.2,9.2,9.2s9.2-4.1,9.2-9.2V21.8L0,9.6z"/>
	</g>
</g>
</svg>
